<svg width="213" height="57" viewBox="0 0 213 57" fill="none" xmlns="http://www.w3.org/2000/svg">
<g clip-path="url(#clip0_34085_1321)">
<path d="M2.64358 15H0V34.0926H2.64358V27.0094C2.64358 25.8111 2.94163 24.8658 3.53774 24.2001C4.13384 23.5344 4.95024 23.1882 5.96102 23.1882C6.82926 23.1882 7.55495 23.5078 8.13809 24.1202C8.72123 24.746 9.01929 25.5315 9.01929 26.4769V34.1059H11.6758V26.4769C11.6758 24.7194 11.1964 23.3347 10.2374 22.2962C9.27846 21.2577 8.02146 20.7384 6.49233 20.7384C6.05173 20.7384 5.61114 20.7917 5.1835 20.9115C4.7429 21.0313 4.39301 21.1645 4.10792 21.3109C3.82283 21.4574 3.5507 21.6172 3.30448 21.8036C3.05826 21.99 2.8898 22.1231 2.81205 22.203C2.73429 22.2829 2.6695 22.3361 2.64358 22.3761V15Z" fill="#F0145A"/>
<path d="M17.5856 15H14.8604V34.0767H17.5856V15Z" fill="#323264"/>
<path d="M33.6598 28.4896L33.796 27.127C33.796 25.3011 33.1965 23.7749 31.9701 22.5486C30.7438 21.3222 29.2176 20.7227 27.3917 20.7227C25.5658 20.7227 23.9851 21.3767 22.677 22.6848C21.3689 23.993 20.7148 25.5463 20.7148 27.3995C20.7148 29.3072 21.3962 30.9423 22.7315 32.305C24.0669 33.6676 25.6748 34.3489 27.528 34.3489C28.2365 34.3489 28.8906 34.2399 29.5446 34.0491C30.1987 33.8311 30.7438 33.6131 31.1253 33.3951C31.5341 33.1498 31.9429 32.8773 32.2971 32.5775C32.6514 32.2777 32.8967 32.0597 33.0057 31.9234C33.1147 31.7872 33.1965 31.7054 33.251 31.6236L31.4796 29.8522L31.0708 30.37C30.7983 30.6971 30.335 31.0241 29.6809 31.3784C28.9996 31.7327 28.291 31.8962 27.528 31.8962C26.4651 31.8962 25.5658 31.5691 24.8027 30.8878C24.0396 30.2065 23.5764 29.4162 23.4401 28.4896H33.6598ZM27.3917 23.0391C28.4 23.0391 29.2176 23.3389 29.8989 23.9112C30.553 24.5108 30.9618 25.2466 31.1253 26.1732H23.5491C23.7944 25.2466 24.2304 24.5108 24.9117 23.9112C25.5658 23.3389 26.4106 23.0391 27.3917 23.0391Z" fill="#323264"/>
<path d="M46.3695 33.286C46.3695 34.4852 46.0153 35.4662 45.2794 36.2293C44.5709 36.9651 43.6715 37.3467 42.5542 37.3467C42.0637 37.3467 41.5731 37.2649 41.1098 37.1286C40.6465 36.9924 40.2922 36.8289 39.9925 36.6381C39.6927 36.4473 39.4202 36.2566 39.1476 36.0113C38.9024 35.766 38.7389 35.6025 38.6571 35.5207C38.5753 35.439 38.5208 35.3572 38.4663 35.3027L36.6949 37.0741L36.9129 37.3467C37.0492 37.5374 37.2945 37.7827 37.6215 38.0552C37.9485 38.3005 38.3301 38.573 38.7661 38.8455C39.2021 39.0908 39.7472 39.3088 40.4285 39.4996C41.1098 39.6904 41.8184 39.7994 42.5542 39.7994C44.4074 39.7994 45.9335 39.1726 47.2144 37.919C48.468 36.6381 49.0948 35.112 49.0948 33.2588V20.9952H46.3695V22.3578L45.9062 21.949C45.6065 21.6765 45.1432 21.404 44.4891 21.1314C43.8351 20.8589 43.1265 20.7227 42.4179 20.7227C40.7555 20.7227 39.3384 21.3495 38.112 22.6303C36.8857 23.9112 36.2861 25.4373 36.2861 27.2632C36.2861 29.0892 36.8857 30.6153 38.112 31.8962C39.3384 33.177 40.7555 33.8038 42.4179 33.8038C42.8812 33.8038 43.3173 33.7493 43.7806 33.6403C44.2166 33.5041 44.5709 33.3678 44.8707 33.2315C45.1704 33.0953 45.443 32.9318 45.6882 32.741C45.9335 32.5502 46.1243 32.414 46.1788 32.3595L46.3695 32.1687V33.286ZM39.0114 27.2632C39.0114 26.1186 39.3657 25.1648 40.1015 24.3745C40.8373 23.5842 41.7094 23.1754 42.6905 23.1754C43.6715 23.1754 44.5436 23.5842 45.2794 24.3745C45.988 25.1648 46.3695 26.1186 46.3695 27.2632C46.3695 28.4079 45.988 29.3617 45.2794 30.152C44.5436 30.9423 43.6715 31.3511 42.6905 31.3511C41.7094 31.3511 40.8373 30.9423 40.1015 30.152C39.3657 29.3617 39.0114 28.4079 39.0114 27.2632Z" fill="#323264"/>
<path d="M63.3195 34.0764V25.6281C63.3195 24.2382 62.8017 23.0664 61.7934 22.1398C60.7851 21.1859 59.4769 20.7227 57.869 20.7227C57.2422 20.7227 56.6154 20.8044 56.0159 20.9679C55.4163 21.1587 54.9258 21.3495 54.5715 21.5675C54.2172 21.7855 53.8629 22.0308 53.5359 22.3306C53.2089 22.6031 53.0181 22.7938 52.9091 22.9029C52.8273 23.0119 52.7456 23.0936 52.6911 23.1754L54.4625 24.9468L54.8168 24.4835C55.0348 24.1837 55.4163 23.9112 55.9886 23.6114C56.5609 23.3116 57.1877 23.1754 57.869 23.1754C58.6594 23.1754 59.3134 23.4207 59.8312 23.8839C60.349 24.3472 60.5943 24.9468 60.5943 25.6281L55.8251 26.4457C54.6533 26.6364 53.6994 27.0997 53.0454 27.8356C52.364 28.5714 52.0098 29.4707 52.0098 30.5335C52.0098 31.5419 52.4458 32.414 53.3179 33.177C54.2172 33.9674 55.3073 34.3489 56.6427 34.3489C57.106 34.3489 57.542 34.2944 57.9781 34.1581C58.4413 34.0491 58.7956 33.9129 59.0954 33.7766C59.3952 33.6403 59.6677 33.4768 59.913 33.286C60.1582 33.0953 60.3218 32.959 60.4308 32.9045C60.5125 32.8228 60.567 32.741 60.5943 32.7137V34.0764H63.3195ZM57.0515 31.8962C56.3429 31.8962 55.7706 31.7327 55.3618 31.4056C54.9258 31.0786 54.735 30.6971 54.735 30.261C54.735 29.7977 54.8713 29.3889 55.1711 29.0892C55.4708 28.7894 55.8796 28.5714 56.3702 28.4896L60.5943 27.8083V28.0808C60.5943 29.3072 60.2945 30.2338 59.6677 30.9151C59.0409 31.5691 58.1688 31.8962 57.0515 31.8962Z" fill="#323264"/>
<path d="M69.3337 15H66.6084V34.0767H69.3337V15Z" fill="#323264"/>
<path d="M0 43.3298H0.852878V46.3201H2.70078V47.0151H0V43.3298Z" fill="#323264"/>
<path d="M8.26752 46.2254H6.5565L6.23009 47.0151H5.35615L6.99873 43.3298H7.84108L9.48893 47.0151H8.59393L8.26752 46.2254ZM7.99902 45.5778L7.41464 44.1669L6.83026 45.5778H7.99902Z" fill="#323264"/>
<path d="M17.8731 43.3298L16.6675 47.0151H15.7515L14.9407 44.5196L14.1036 47.0151H13.1928L11.982 43.3298H12.8664L13.6982 45.92L14.5669 43.3298H15.3566L16.199 45.9411L17.0571 43.3298H17.8731Z" fill="#323264"/>
<path d="M26.9457 47.0782C26.5702 47.0782 26.2297 46.9975 25.9244 46.8361C25.6225 46.6711 25.3838 46.4447 25.2084 46.1569C25.0364 45.8656 24.9504 45.5374 24.9504 45.1724C24.9504 44.8074 25.0364 44.481 25.2084 44.1932C25.3838 43.9019 25.6225 43.6755 25.9244 43.514C26.2297 43.3491 26.5719 43.2666 26.951 43.2666C27.2704 43.2666 27.5582 43.3228 27.8144 43.4351C28.0741 43.5474 28.2917 43.7088 28.4672 43.9194L27.9197 44.4248C27.6705 44.137 27.3616 43.9931 26.9931 43.9931C26.7649 43.9931 26.5614 44.044 26.3824 44.1458C26.2034 44.2441 26.063 44.3827 25.9612 44.5617C25.8629 44.7407 25.8138 44.9443 25.8138 45.1724C25.8138 45.4006 25.8629 45.6041 25.9612 45.7831C26.063 45.9621 26.2034 46.1025 26.3824 46.2043C26.5614 46.3026 26.7649 46.3517 26.9931 46.3517C27.3616 46.3517 27.6705 46.206 27.9197 45.9147L28.4672 46.4201C28.2917 46.6342 28.0741 46.7974 27.8144 46.9098C27.5547 47.0221 27.2651 47.0782 26.9457 47.0782Z" fill="#323264"/>
<path d="M33.3831 47.0782C33.0005 47.0782 32.6548 46.9958 32.3459 46.8308C32.0406 46.6658 31.8002 46.4395 31.6247 46.1516C31.4527 45.8603 31.3667 45.5339 31.3667 45.1724C31.3667 44.8109 31.4527 44.4863 31.6247 44.1985C31.8002 43.9071 32.0406 43.679 32.3459 43.514C32.6548 43.3491 33.0005 43.2666 33.3831 43.2666C33.7657 43.2666 34.1096 43.3491 34.415 43.514C34.7203 43.679 34.9607 43.9071 35.1362 44.1985C35.3117 44.4863 35.3995 44.8109 35.3995 45.1724C35.3995 45.5339 35.3117 45.8603 35.1362 46.1516C34.9607 46.4395 34.7203 46.6658 34.415 46.8308C34.1096 46.9958 33.7657 47.0782 33.3831 47.0782ZM33.3831 46.3517C33.6007 46.3517 33.7972 46.3026 33.9727 46.2043C34.1482 46.1025 34.2851 45.9621 34.3834 45.7831C34.4852 45.6041 34.5361 45.4006 34.5361 45.1724C34.5361 44.9443 34.4852 44.7407 34.3834 44.5617C34.2851 44.3827 34.1482 44.2441 33.9727 44.1458C33.7972 44.044 33.6007 43.9931 33.3831 43.9931C33.1655 43.9931 32.9689 44.044 32.7934 44.1458C32.618 44.2441 32.4793 44.3827 32.3775 44.5617C32.2793 44.7407 32.2301 44.9443 32.2301 45.1724C32.2301 45.4006 32.2793 45.6041 32.3775 45.7831C32.4793 45.9621 32.618 46.1025 32.7934 46.2043C32.9689 46.3026 33.1655 46.3517 33.3831 46.3517Z" fill="#323264"/>
<path d="M42.0264 47.0151L42.0211 44.8039L40.9366 46.6255H40.5523L39.473 44.8513V47.0151H38.6728V43.3298H39.3782L40.7576 45.6199L42.1159 43.3298H42.8161L42.8266 47.0151H42.0264Z" fill="#323264"/>
<path d="M47.9285 43.3298C48.2549 43.3298 48.5374 43.3842 48.7761 43.493C49.0183 43.6018 49.2043 43.7562 49.3342 43.9563C49.464 44.1563 49.529 44.3932 49.529 44.667C49.529 44.9373 49.464 45.1742 49.3342 45.3777C49.2043 45.5778 49.0183 45.7322 48.7761 45.841C48.5374 45.9463 48.2549 45.999 47.9285 45.999H47.1862V47.0151H46.3333V43.3298H47.9285ZM47.8811 45.304C48.1373 45.304 48.3321 45.2496 48.4655 45.1408C48.5989 45.0285 48.6656 44.8706 48.6656 44.667C48.6656 44.4599 48.5989 44.302 48.4655 44.1932C48.3321 44.0809 48.1373 44.0247 47.8811 44.0247H47.1862V45.304H47.8811Z" fill="#323264"/>
<path d="M55.0121 46.2254H53.3011L52.9747 47.0151H52.1008L53.7433 43.3298H54.5857L56.2335 47.0151H55.3385L55.0121 46.2254ZM54.7436 45.5778L54.1592 44.1669L53.5749 45.5778H54.7436Z" fill="#323264"/>
<path d="M62.6281 43.3298V47.0151H61.9279L60.0906 44.7776V47.0151H59.2482V43.3298H59.9537L61.7858 45.5673V43.3298H62.6281Z" fill="#323264"/>
<path d="M67.9013 45.7094V47.0151H67.0485V45.6989L65.6217 43.3298H66.5273L67.5117 44.9671L68.4963 43.3298H69.3333L67.9013 45.7094Z" fill="#323264"/>
<path fill-rule="evenodd" clip-rule="evenodd" d="M81.7283 15H84.9505L76.5557 41H73.3335L81.7283 15Z" fill="#F0145A"/>
<path d="M96.3502 23.4C97.3369 23.4 98.2302 23.6267 99.0302 24.08C99.8302 24.52 100.457 25.1467 100.91 25.96C101.364 26.7733 101.59 27.7 101.59 28.74C101.59 29.7933 101.364 30.7267 100.91 31.54C100.457 32.3533 99.8302 32.9867 99.0302 33.44C98.2435 33.88 97.3502 34.1 96.3502 34.1C95.4969 34.1 94.7235 33.9267 94.0302 33.58C93.3502 33.22 92.7902 32.7 92.3502 32.02V37.88H90.9302V23.48H92.2902V25.56C92.7169 24.8667 93.2769 24.3333 93.9702 23.96C94.6769 23.5867 95.4702 23.4 96.3502 23.4ZM96.2502 32.84C96.9835 32.84 97.6502 32.6733 98.2502 32.34C98.8502 31.9933 99.3169 31.5067 99.6502 30.88C99.9969 30.2533 100.17 29.54 100.17 28.74C100.17 27.94 99.9969 27.2333 99.6502 26.62C99.3169 25.9933 98.8502 25.5067 98.2502 25.16C97.6502 24.8133 96.9835 24.64 96.2502 24.64C95.5035 24.64 94.8302 24.8133 94.2302 25.16C93.6435 25.5067 93.1769 25.9933 92.8302 26.62C92.4969 27.2333 92.3302 27.94 92.3302 28.74C92.3302 29.54 92.4969 30.2533 92.8302 30.88C93.1769 31.5067 93.6435 31.9933 94.2302 32.34C94.8302 32.6733 95.5035 32.84 96.2502 32.84ZM113.965 23.48V34H112.605V32.08C112.232 32.72 111.718 33.22 111.065 33.58C110.412 33.9267 109.665 34.1 108.825 34.1C107.452 34.1 106.365 33.72 105.565 32.96C104.778 32.1867 104.385 31.06 104.385 29.58V23.48H105.805V29.44C105.805 30.5467 106.078 31.3867 106.625 31.96C107.172 32.5333 107.952 32.82 108.965 32.82C110.072 32.82 110.945 32.4867 111.585 31.82C112.225 31.14 112.545 30.2 112.545 29V23.48H113.965ZM123.362 23.4C124.349 23.4 125.242 23.6267 126.042 24.08C126.842 24.52 127.469 25.1467 127.922 25.96C128.375 26.7733 128.602 27.7 128.602 28.74C128.602 29.78 128.375 30.7067 127.922 31.52C127.469 32.3333 126.842 32.9667 126.042 33.42C125.242 33.8733 124.349 34.1 123.362 34.1C122.482 34.1 121.689 33.9133 120.982 33.54C120.289 33.1667 119.729 32.6267 119.302 31.92V34H117.942V19.16H119.362V25.48C119.802 24.8 120.362 24.2867 121.042 23.94C121.735 23.58 122.509 23.4 123.362 23.4ZM123.262 32.84C123.995 32.84 124.662 32.6733 125.262 32.34C125.862 31.9933 126.329 31.5067 126.662 30.88C127.009 30.2533 127.182 29.54 127.182 28.74C127.182 27.94 127.009 27.2267 126.662 26.6C126.329 25.9733 125.862 25.4933 125.262 25.16C124.662 24.8133 123.995 24.64 123.262 24.64C122.515 24.64 121.842 24.8133 121.242 25.16C120.655 25.4933 120.189 25.9733 119.842 26.6C119.509 27.2267 119.342 27.94 119.342 28.74C119.342 29.54 119.509 30.2533 119.842 30.88C120.189 31.5067 120.655 31.9933 121.242 32.34C121.842 32.6733 122.515 32.84 123.262 32.84ZM131.497 19.16H132.917V34H131.497V19.16ZM136.868 23.48H138.288V34H136.868V23.48ZM137.588 21.18C137.294 21.18 137.048 21.08 136.848 20.88C136.648 20.68 136.548 20.44 136.548 20.16C136.548 19.8933 136.648 19.66 136.848 19.46C137.048 19.26 137.294 19.16 137.588 19.16C137.881 19.16 138.128 19.26 138.328 19.46C138.528 19.6467 138.628 19.8733 138.628 20.14C138.628 20.4333 138.528 20.68 138.328 20.88C138.128 21.08 137.881 21.18 137.588 21.18ZM146.599 34.1C145.559 34.1 144.625 33.8733 143.799 33.42C142.985 32.9667 142.345 32.3333 141.879 31.52C141.412 30.6933 141.179 29.7667 141.179 28.74C141.179 27.7133 141.412 26.7933 141.879 25.98C142.345 25.1667 142.985 24.5333 143.799 24.08C144.625 23.6267 145.559 23.4 146.599 23.4C147.505 23.4 148.312 23.58 149.019 23.94C149.739 24.2867 150.305 24.8 150.719 25.48L149.659 26.2C149.312 25.68 148.872 25.2933 148.339 25.04C147.805 24.7733 147.225 24.64 146.599 24.64C145.839 24.64 145.152 24.8133 144.539 25.16C143.939 25.4933 143.465 25.9733 143.119 26.6C142.785 27.2267 142.619 27.94 142.619 28.74C142.619 29.5533 142.785 30.2733 143.119 30.9C143.465 31.5133 143.939 31.9933 144.539 32.34C145.152 32.6733 145.839 32.84 146.599 32.84C147.225 32.84 147.805 32.7133 148.339 32.46C148.872 32.2067 149.312 31.82 149.659 31.3L150.719 32.02C150.305 32.7 149.739 33.22 149.019 33.58C148.299 33.9267 147.492 34.1 146.599 34.1ZM157.188 23.4C158.562 23.4 159.615 23.7467 160.348 24.44C161.082 25.12 161.448 26.1333 161.448 27.48V34H160.088V32.36C159.768 32.9067 159.295 33.3333 158.668 33.64C158.055 33.9467 157.322 34.1 156.468 34.1C155.295 34.1 154.362 33.82 153.668 33.26C152.975 32.7 152.628 31.96 152.628 31.04C152.628 30.1467 152.948 29.4267 153.588 28.88C154.242 28.3333 155.275 28.06 156.688 28.06H160.028V27.42C160.028 26.5133 159.775 25.8267 159.268 25.36C158.762 24.88 158.022 24.64 157.048 24.64C156.382 24.64 155.742 24.7533 155.128 24.98C154.515 25.1933 153.988 25.4933 153.548 25.88L152.908 24.82C153.442 24.3667 154.082 24.02 154.828 23.78C155.575 23.5267 156.362 23.4 157.188 23.4ZM156.688 32.98C157.488 32.98 158.175 32.8 158.748 32.44C159.322 32.0667 159.748 31.5333 160.028 30.84V29.12H156.728C154.928 29.12 154.028 29.7467 154.028 31C154.028 31.6133 154.262 32.1 154.728 32.46C155.195 32.8067 155.848 32.98 156.688 32.98ZM170.845 33.36C170.579 33.6 170.245 33.7867 169.845 33.92C169.459 34.04 169.052 34.1 168.625 34.1C167.639 34.1 166.879 33.8333 166.345 33.3C165.812 32.7667 165.545 32.0133 165.545 31.04V24.68H163.665V23.48H165.545V21.18H166.965V23.48H170.165V24.68H166.965V30.96C166.965 31.5867 167.119 32.0667 167.425 32.4C167.745 32.72 168.199 32.88 168.785 32.88C169.079 32.88 169.359 32.8333 169.625 32.74C169.905 32.6467 170.145 32.5133 170.345 32.34L170.845 33.36ZM173.43 23.48H174.85V34H173.43V23.48ZM174.15 21.18C173.857 21.18 173.61 21.08 173.41 20.88C173.21 20.68 173.11 20.44 173.11 20.16C173.11 19.8933 173.21 19.66 173.41 19.46C173.61 19.26 173.857 19.16 174.15 19.16C174.444 19.16 174.69 19.26 174.89 19.46C175.09 19.6467 175.19 19.8733 175.19 20.14C175.19 20.4333 175.09 20.68 174.89 20.88C174.69 21.08 174.444 21.18 174.15 21.18ZM183.101 34.1C182.088 34.1 181.175 33.8733 180.361 33.42C179.548 32.9533 178.908 32.3133 178.441 31.5C177.975 30.6867 177.741 29.7667 177.741 28.74C177.741 27.7133 177.975 26.7933 178.441 25.98C178.908 25.1667 179.548 24.5333 180.361 24.08C181.175 23.6267 182.088 23.4 183.101 23.4C184.115 23.4 185.028 23.6267 185.841 24.08C186.655 24.5333 187.288 25.1667 187.741 25.98C188.208 26.7933 188.441 27.7133 188.441 28.74C188.441 29.7667 188.208 30.6867 187.741 31.5C187.288 32.3133 186.655 32.9533 185.841 33.42C185.028 33.8733 184.115 34.1 183.101 34.1ZM183.101 32.84C183.848 32.84 184.515 32.6733 185.101 32.34C185.701 31.9933 186.168 31.5067 186.501 30.88C186.835 30.2533 187.001 29.54 187.001 28.74C187.001 27.94 186.835 27.2267 186.501 26.6C186.168 25.9733 185.701 25.4933 185.101 25.16C184.515 24.8133 183.848 24.64 183.101 24.64C182.355 24.64 181.681 24.8133 181.081 25.16C180.495 25.4933 180.028 25.9733 179.681 26.6C179.348 27.2267 179.181 27.94 179.181 28.74C179.181 29.54 179.348 30.2533 179.681 30.88C180.028 31.5067 180.495 31.9933 181.081 32.34C181.681 32.6733 182.355 32.84 183.101 32.84ZM196.7 23.4C198.02 23.4 199.067 23.7867 199.84 24.56C200.627 25.32 201.02 26.4333 201.02 27.9V34H199.6V28.04C199.6 26.9467 199.327 26.1133 198.78 25.54C198.234 24.9667 197.454 24.68 196.44 24.68C195.307 24.68 194.407 25.02 193.74 25.7C193.087 26.3667 192.76 27.2933 192.76 28.48V34H191.34V23.48H192.7V25.42C193.087 24.78 193.62 24.2867 194.3 23.94C194.994 23.58 195.794 23.4 196.7 23.4ZM207.696 34.1C206.842 34.1 206.022 33.98 205.236 33.74C204.462 33.4867 203.856 33.1733 203.416 32.8L204.056 31.68C204.496 32.0267 205.049 32.3133 205.716 32.54C206.382 32.7533 207.076 32.86 207.796 32.86C208.756 32.86 209.462 32.7133 209.916 32.42C210.382 32.1133 210.616 31.6867 210.616 31.14C210.616 30.7533 210.489 30.4533 210.236 30.24C209.982 30.0133 209.662 29.8467 209.276 29.74C208.889 29.62 208.376 29.5067 207.736 29.4C206.882 29.24 206.196 29.08 205.676 28.92C205.156 28.7467 204.709 28.46 204.336 28.06C203.976 27.66 203.796 27.1067 203.796 26.4C203.796 25.52 204.162 24.8 204.896 24.24C205.629 23.68 206.649 23.4 207.956 23.4C208.636 23.4 209.316 23.4933 209.996 23.68C210.676 23.8533 211.236 24.0867 211.676 24.38L211.056 25.52C210.189 24.92 209.156 24.62 207.956 24.62C207.049 24.62 206.362 24.78 205.896 25.1C205.442 25.42 205.216 25.84 205.216 26.36C205.216 26.76 205.342 27.08 205.596 27.32C205.862 27.56 206.189 27.74 206.576 27.86C206.962 27.9667 207.496 28.08 208.176 28.2C209.016 28.36 209.689 28.52 210.196 28.68C210.702 28.84 211.136 29.1133 211.496 29.5C211.856 29.8867 212.036 30.42 212.036 31.1C212.036 32.02 211.649 32.7533 210.876 33.3C210.116 33.8333 209.056 34.1 207.696 34.1Z" fill="#323264"/>
</g>
<defs>
<clipPath id="clip0_34085_1321">
<rect width="212.95" height="57" fill="white"/>
</clipPath>
</defs>
</svg>
