<svg width="92" height="92" viewBox="0 0 92 92" fill="none" xmlns="http://www.w3.org/2000/svg">
<rect width="92" height="92" rx="24" fill="white"/>
<path d="M56.0057 70H37.0057V76H56.0057V70Z" fill="black"/>
<path d="M56.0057 70H37.0057V76H56.0057V70Z" fill="url(#paint0_linear_22728_7815)"/>
<path d="M29.1727 16.4517L15.7377 29.8867L19.2732 33.4223L32.7083 19.9872L29.1727 16.4517Z" fill="black"/>
<path d="M29.1727 16.4517L15.7377 29.8867L19.2732 33.4223L32.7083 19.9872L29.1727 16.4517Z" fill="url(#paint1_linear_22728_7815)"/>
<path d="M63.1127 16.3219L59.5771 19.8574L73.0122 33.2925L76.5477 29.757L63.1127 16.3219Z" fill="black"/>
<path d="M63.1127 16.3219L59.5771 19.8574L73.0122 33.2925L76.5477 29.757L63.1127 16.3219Z" fill="url(#paint2_linear_22728_7815)"/>
<path d="M58.5564 23.7065L55.8651 23.5924C55.089 23.4829 54.2981 23.5552 53.5548 23.8036C52.8115 24.0521 52.1361 24.4699 51.5819 25.024L46.0775 30.5285L40.3239 24.775C39.8244 24.2869 39.2011 23.9443 38.5214 23.7842C37.8416 23.624 37.131 23.6523 36.4661 23.866C35.8388 24.0568 35.1715 24.0735 34.5355 23.9144C33.8995 23.7554 33.3186 23.4265 32.8551 22.9629L32.0012 22.109L21.3945 32.7156L23.1225 34.4436L23.0085 37.1348C22.8989 37.9108 22.9712 38.7017 23.2197 39.445C23.4681 40.1884 23.8859 40.8638 24.4401 41.418L34.0525 51.0304C34.181 49.7686 34.7856 48.6032 35.7432 47.7715L32.7482 44.7765L33.4553 44.0695L36.5836 47.1977C37.027 46.9452 37.5068 46.7629 38.0059 46.6571V42.9632L36.2838 41.241L36.9908 40.5339L38.0059 41.5489V36.1991C37.9948 35.3148 38.3086 34.4572 38.8879 33.789C39.4672 33.1208 40.2716 32.6885 41.1485 32.5741C41.4792 32.542 41.8128 32.5571 42.1393 32.6189L40.9098 31.3894L41.6169 30.6823L43.4131 32.4785C43.7312 31.8621 44.2233 31.3527 44.8283 31.0135C45.4333 30.6742 46.1246 30.5201 46.8165 30.5702C47.6513 30.6677 48.4258 31.0542 49.0057 31.6628C49.5855 32.2713 49.9342 33.0636 49.9913 33.9022C50.5596 33.632 51.1894 33.5175 51.8165 33.5702C52.7075 33.6768 53.5273 34.1107 54.1166 34.7875C54.7059 35.4644 55.0228 36.336 55.0059 37.2333V40.6571C55.916 40.8472 56.7551 41.287 57.4292 41.9274C58.1032 42.5677 58.5855 43.3832 58.822 44.2823L61.6105 41.4938L62.3176 42.2009L59.0023 45.5162C59.0024 45.5299 59.0059 45.5427 59.0059 45.5565V48.8766C59.9043 48.7826 60.7437 48.3844 61.3848 47.7481L68.225 40.908C68.7131 40.4084 69.0556 39.7852 69.2158 39.1054C69.3759 38.4256 69.3476 37.715 69.1339 37.0501C68.9431 36.4228 68.9264 35.7555 69.0855 35.1195C69.2445 34.4835 69.5735 33.9026 70.0371 33.439L70.8909 32.5851L60.2844 21.9785L58.5564 23.7065Z" fill="black"/>
<path d="M58.5564 23.7065L55.8651 23.5924C55.089 23.4829 54.2981 23.5552 53.5548 23.8036C52.8115 24.0521 52.1361 24.4699 51.5819 25.024L46.0775 30.5285L40.3239 24.775C39.8244 24.2869 39.2011 23.9443 38.5214 23.7842C37.8416 23.624 37.131 23.6523 36.4661 23.866C35.8388 24.0568 35.1715 24.0735 34.5355 23.9144C33.8995 23.7554 33.3186 23.4265 32.8551 22.9629L32.0012 22.109L21.3945 32.7156L23.1225 34.4436L23.0085 37.1348C22.8989 37.9108 22.9712 38.7017 23.2197 39.445C23.4681 40.1884 23.8859 40.8638 24.4401 41.418L34.0525 51.0304C34.181 49.7686 34.7856 48.6032 35.7432 47.7715L32.7482 44.7765L33.4553 44.0695L36.5836 47.1977C37.027 46.9452 37.5068 46.7629 38.0059 46.6571V42.9632L36.2838 41.241L36.9908 40.5339L38.0059 41.5489V36.1991C37.9948 35.3148 38.3086 34.4572 38.8879 33.789C39.4672 33.1208 40.2716 32.6885 41.1485 32.5741C41.4792 32.542 41.8128 32.5571 42.1393 32.6189L40.9098 31.3894L41.6169 30.6823L43.4131 32.4785C43.7312 31.8621 44.2233 31.3527 44.8283 31.0135C45.4333 30.6742 46.1246 30.5201 46.8165 30.5702C47.6513 30.6677 48.4258 31.0542 49.0057 31.6628C49.5855 32.2713 49.9342 33.0636 49.9913 33.9022C50.5596 33.632 51.1894 33.5175 51.8165 33.5702C52.7075 33.6768 53.5273 34.1107 54.1166 34.7875C54.7059 35.4644 55.0228 36.336 55.0059 37.2333V40.6571C55.916 40.8472 56.7551 41.287 57.4292 41.9274C58.1032 42.5677 58.5855 43.3832 58.822 44.2823L61.6105 41.4938L62.3176 42.2009L59.0023 45.5162C59.0024 45.5299 59.0059 45.5427 59.0059 45.5565V48.8766C59.9043 48.7826 60.7437 48.3844 61.3848 47.7481L68.225 40.908C68.7131 40.4084 69.0556 39.7852 69.2158 39.1054C69.3759 38.4256 69.3476 37.715 69.1339 37.0501C68.9431 36.4228 68.9264 35.7555 69.0855 35.1195C69.2445 34.4835 69.5735 33.9026 70.0371 33.439L70.8909 32.5851L60.2844 21.9785L58.5564 23.7065Z" fill="url(#paint3_linear_22728_7815)"/>
<path d="M43.8804 35.6901C43.8044 35.0405 43.476 34.4468 42.966 34.0373C42.4559 33.6278 41.8053 33.4353 41.1546 33.5015C40.5234 33.5886 39.9463 33.9046 39.5329 34.3894C39.1194 34.8742 38.8986 35.4941 38.9124 36.1311V47.4885C37.8515 47.4885 36.8341 47.9099 36.0839 48.66C35.3338 49.4102 34.9124 50.4276 34.9124 51.4885V61.1619C34.9205 61.8603 35.1189 62.5432 35.4864 63.1371C35.8538 63.7311 36.3763 64.2135 36.9976 64.5325C37.576 64.8412 38.0597 65.3012 38.3969 65.8634C38.7342 66.4256 38.9123 67.0689 38.9124 67.7245V68.9321H53.9124V66.4885L55.896 64.6661C56.5222 64.1948 57.0303 63.5844 57.3803 62.8831C57.7302 62.1818 57.9123 61.4088 57.9124 60.6251V45.4885C57.9124 44.4276 57.4909 43.4102 56.7408 42.66C55.9906 41.9099 54.9732 41.4885 53.9124 41.4885V37.1659C53.9293 36.5187 53.7062 35.888 53.286 35.3955C52.8657 34.903 52.2781 34.5834 51.6362 34.4983C51.0063 34.4426 50.3787 34.6285 49.8807 35.0183C49.3826 35.408 49.0513 35.9725 48.9539 36.5974H49.4124V52.0407H48.4124V36.5974H48.9124V34.1659C48.9293 33.5187 48.7062 32.888 48.286 32.3955C47.8657 31.903 47.2781 31.5834 46.6362 31.4983C46.2904 31.4673 45.942 31.5086 45.613 31.6196C45.2841 31.7306 44.9819 31.909 44.7256 32.1432C44.4694 32.3775 44.2647 32.6625 44.1247 32.9802C43.9847 33.2979 43.9124 33.6413 43.9124 33.9885V35.6901H44.4124V51.1335H43.4124V35.6901H43.8804ZM39.3115 56.0407H38.3115V48.0407H39.3115V56.0407ZM53.4124 41.799H54.4124V52.2423H53.4124V41.799Z" fill="black"/>
<path d="M43.8804 35.6901C43.8044 35.0405 43.476 34.4468 42.966 34.0373C42.4559 33.6278 41.8053 33.4353 41.1546 33.5015C40.5234 33.5886 39.9463 33.9046 39.5329 34.3894C39.1194 34.8742 38.8986 35.4941 38.9124 36.1311V47.4885C37.8515 47.4885 36.8341 47.9099 36.0839 48.66C35.3338 49.4102 34.9124 50.4276 34.9124 51.4885V61.1619C34.9205 61.8603 35.1189 62.5432 35.4864 63.1371C35.8538 63.7311 36.3763 64.2135 36.9976 64.5325C37.576 64.8412 38.0597 65.3012 38.3969 65.8634C38.7342 66.4256 38.9123 67.0689 38.9124 67.7245V68.9321H53.9124V66.4885L55.896 64.6661C56.5222 64.1948 57.0303 63.5844 57.3803 62.8831C57.7302 62.1818 57.9123 61.4088 57.9124 60.6251V45.4885C57.9124 44.4276 57.4909 43.4102 56.7408 42.66C55.9906 41.9099 54.9732 41.4885 53.9124 41.4885V37.1659C53.9293 36.5187 53.7062 35.888 53.286 35.3955C52.8657 34.903 52.2781 34.5834 51.6362 34.4983C51.0063 34.4426 50.3787 34.6285 49.8807 35.0183C49.3826 35.408 49.0513 35.9725 48.9539 36.5974H49.4124V52.0407H48.4124V36.5974H48.9124V34.1659C48.9293 33.5187 48.7062 32.888 48.286 32.3955C47.8657 31.903 47.2781 31.5834 46.6362 31.4983C46.2904 31.4673 45.942 31.5086 45.613 31.6196C45.2841 31.7306 44.9819 31.909 44.7256 32.1432C44.4694 32.3775 44.2647 32.6625 44.1247 32.9802C43.9847 33.2979 43.9124 33.6413 43.9124 33.9885V35.6901H44.4124V51.1335H43.4124V35.6901H43.8804ZM39.3115 56.0407H38.3115V48.0407H39.3115V56.0407ZM53.4124 41.799H54.4124V52.2423H53.4124V41.799Z" fill="url(#paint4_linear_22728_7815)"/>
<defs>
<linearGradient id="paint0_linear_22728_7815" x1="46.5057" y1="70" x2="46.5057" y2="76" gradientUnits="userSpaceOnUse">
<stop stop-color="#EF8080"/>
<stop offset="1" stop-color="#F0145A"/>
</linearGradient>
<linearGradient id="paint1_linear_22728_7815" x1="22.4552" y1="23.1692" x2="25.9907" y2="26.7047" gradientUnits="userSpaceOnUse">
<stop stop-color="#EF8080"/>
<stop offset="1" stop-color="#F0145A"/>
</linearGradient>
<linearGradient id="paint2_linear_22728_7815" x1="61.3449" y1="18.0897" x2="74.78" y2="31.5247" gradientUnits="userSpaceOnUse">
<stop stop-color="#EF8080"/>
<stop offset="1" stop-color="#F0145A"/>
</linearGradient>
<linearGradient id="paint3_linear_22728_7815" x1="46.1427" y1="21.9785" x2="46.1427" y2="51.0304" gradientUnits="userSpaceOnUse">
<stop stop-color="#EF8080"/>
<stop offset="1" stop-color="#F0145A"/>
</linearGradient>
<linearGradient id="paint4_linear_22728_7815" x1="46.4124" y1="31.4883" x2="46.4124" y2="68.9321" gradientUnits="userSpaceOnUse">
<stop stop-color="#EF8080"/>
<stop offset="1" stop-color="#F0145A"/>
</linearGradient>
</defs>
</svg>
